<svg xmlns="http://www.w3.org/2000/svg" height="20" width="20" viewBox="0 0 20 20">
    <path
        d="M2.052 4.126a.63.63 0 0 1 .56-.178l3.105.564A6.63 6.63 0 0 1 9.923 7.18l.077.107.077-.107a6.63 6.63 0 0 1 4.206-2.668l3.105-.564a.625.625 0 0 1 .724.742l-.625 2.998a5.64 5.64 0 0 1-4.028 4.288c-.566.155-.959.67-.959 1.257v3.33c0 .345-.28.625-.625.625h-3.75a.625.625 0 0 1-.625-.625v-3.33c0-.587-.392-1.101-.959-1.257a5.64 5.64 0 0 1-4.028-4.288L1.888 4.69a.63.63 0 0 1 .164-.564m1.25 1.217.435 2.09a4.39 4.39 0 0 0 3.135 3.338 2.55 2.55 0 0 1 1.878 2.462v2.704h2.5v-2.704c0-1.15.769-2.158 1.878-2.462a4.39 4.39 0 0 0 3.136-3.337l.435-2.09-2.193.398a5.38 5.38 0 0 0-3.412 2.164l-.585.82a.625.625 0 0 1-1.018 0l-.585-.82a5.38 5.38 0 0 0-3.412-2.164z">
    </path>
</svg>
