<?xml version="1.0" standalone="no"?><!DOCTYPE svg PUBLIC "-//W3C//DTD SVG 1.1//EN" "http://www.w3.org/Graphics/SVG/1.1/DTD/svg11.dtd"><svg t="1703318435706" class="icon" viewBox="0 0 1024 1024" version="1.1" xmlns="http://www.w3.org/2000/svg" p-id="1725" xmlns:xlink="http://www.w3.org/1999/xlink" width="200" height="200"><path d="M958.293333 256c-32.853333 14.933333-68.266667 24.746667-104.96 29.44 37.546667-22.613333 66.56-58.453333 80.213334-101.546667-35.413333 21.333333-74.666667 36.266667-116.053334 44.8C783.786667 192 736.426667 170.666667 682.666667 170.666667c-100.266667 0-182.186667 81.92-182.186667 183.04 0 14.506667 1.706667 28.586667 4.693333 41.813333C353.28 387.84 218.026667 314.88 128 204.373333c-15.786667 26.88-24.746667 58.453333-24.746667 91.733334 0 63.573333 32 119.893333 81.493334 151.893333-30.293333 0-58.453333-8.533333-83.2-21.333333v1.28c0 88.746667 63.146667 162.986667 146.773333 179.626666a180.053333 180.053333 0 0 1-82.346667 2.986667 182.613333 182.613333 0 0 0 170.666667 127.146667 363.562667 363.562667 0 0 1-227.413333 78.506666c-14.506667 0-29.013333-0.853333-43.52-2.56C146.773333 865.706667 243.2 896 346.453333 896 682.666667 896 867.413333 616.96 867.413333 375.04c0-8.106667 0-15.786667-0.426666-23.893333 35.84-25.6 66.56-58.026667 91.306666-95.146667z" p-id="1726"></path></svg>